<svg width="32" height="32" viewBox="0 0 32 32" fill="none" xmlns="http://www.w3.org/2000/svg">
<path fill-rule="evenodd" clip-rule="evenodd" d="M13.3318 20.003C17.0136 20.003 19.9984 17.0182 19.9984 13.3363C19.9984 9.65437 17.0136 6.6696 13.3318 6.6696C9.64985 6.6696 6.66508 9.65437 6.66508 13.3363C6.66508 17.0182 9.64985 20.003 13.3318 20.003ZM13.3318 22.6696C18.4864 22.6696 22.6651 18.4908 22.6651 13.3363C22.6651 8.1816 18.4864 4.00293 13.3318 4.00293C8.1771 4.00293 3.99841 8.18162 3.99841 13.3363C3.99841 18.4908 8.1771 22.6696 13.3318 22.6696Z" fill="white"/>
<path fill-rule="evenodd" clip-rule="evenodd" d="M22.8933 22.8979C22.3726 23.4186 22.3726 24.2627 22.8933 24.7835L25.7218 27.6118C26.2424 28.1326 27.0866 28.1326 27.6074 27.6118C28.128 27.0912 28.128 26.247 27.6074 25.7262L24.7789 22.8979C24.2582 22.3771 23.4139 22.3771 22.8933 22.8979Z" fill="white"/>
</svg>
