<svg width="32" height="32" viewBox="0 0 32 32" fill="none" xmlns="http://www.w3.org/2000/svg">
<path fill-rule="evenodd" clip-rule="evenodd" d="M15.9999 12.9188C17.7264 12.9188 19.1259 11.5192 19.1259 9.79272C19.1259 8.06626 17.7264 6.66667 15.9999 6.66667C14.2734 6.66667 12.8738 8.06626 12.8738 9.79272C12.8738 11.5192 14.2734 12.9188 15.9999 12.9188ZM15.9999 15.5855C19.1991 15.5855 21.7927 12.992 21.7927 9.79272C21.7927 6.59349 19.1991 4 15.9999 4C12.8006 4 10.2072 6.59349 10.2072 9.79272C10.2072 12.992 12.8006 15.5855 15.9999 15.5855Z" fill="white"/>
<path fill-rule="evenodd" clip-rule="evenodd" d="M16 22.2541C12.0077 22.2541 8.49215 24.298 6.44367 27.4028C6.03813 28.0175 5.21111 28.1871 4.59645 27.7815C3.98179 27.3759 3.81227 26.5488 4.21781 25.9343C6.73882 22.1133 11.0741 19.5874 16 19.5874C20.9259 19.5874 25.2611 22.1133 27.7822 25.9343C28.1877 26.5488 28.0182 27.3759 27.4035 27.7815C26.7888 28.1871 25.9619 28.0175 25.5563 27.4028C23.5078 24.298 19.9923 22.2541 16 22.2541Z" fill="white"/>
</svg>
