<svg width="27" height="20" viewBox="0 0 27 20" fill="none" xmlns="http://www.w3.org/2000/svg">
<path fill-rule="evenodd" clip-rule="evenodd" d="M24.0488 0.597066C25.2104 0.925733 26.1255 1.89373 26.436 3.12307C27 5.35107 27 10 27 10C27 10 27 14.6489 26.436 16.8768C26.1255 18.1061 25.2104 19.0743 24.0488 19.4029C21.9432 20 13.5 20 13.5 20C13.5 20 5.05683 20 2.95124 19.4029C1.78956 19.0743 0.87453 18.1061 0.56403 16.8768C-8.04663e-08 14.6489 0 10 0 10C0 10 -8.04663e-08 5.35107 0.56403 3.12307C0.87453 1.89373 1.78956 0.925733 2.95124 0.597066C5.05683 -4.37101e-07 13.5 0 13.5 0C13.5 0 21.9432 -4.37101e-07 24.0488 0.597066ZM17.8147 10L10.8 5.71427V14.2857L17.8147 10Z" fill="white"/>
</svg>
