<svg width="29" height="33" viewBox="0 0 29 33" fill="none" xmlns="http://www.w3.org/2000/svg">
<path d="M16.9846 24.1767C16.8871 26.724 14.7779 28.7665 12.1876 28.7665C11.5961 28.7665 11.0306 28.6609 10.5041 28.463C11.0273 28.6576 11.5929 28.7665 12.1876 28.7665C14.7779 28.7665 16.8904 26.724 16.9846 24.1767L16.9944 1.44196H21.1804C21.5834 3.60324 22.8769 5.45765 24.6677 6.61584C24.6677 6.61584 24.6677 6.61584 24.671 6.61914C25.919 7.42426 27.4042 7.89611 29 7.89611V9.15988V13.5682C26.036 13.5682 23.2897 12.6278 21.0472 11.0308V22.5598C21.0472 28.3178 16.3281 33 10.5236 33C8.28107 33 6.20105 32.2972 4.49154 31.106L4.48829 31.1027C1.77777 29.212 0 26.0872 0 22.5565C0 16.7986 4.71904 12.1164 10.5236 12.1164C11.0046 12.1164 11.4759 12.156 11.9406 12.2187V13.5616C6.64631 13.6837 2.30752 17.7027 1.73227 22.8337C2.30752 17.7027 6.64956 13.687 11.9406 13.5616V18.0096C11.4921 17.871 11.0176 17.7885 10.5236 17.7885C7.87482 17.7885 5.7168 19.9267 5.7168 22.5565C5.7168 24.3879 6.76331 25.9783 8.29407 26.7768C8.96033 27.1266 9.71758 27.3246 10.5236 27.3246C13.1139 27.3246 15.2231 25.2821 15.3206 22.7347L15.3304 0H21.0472C21.0472 0.491651 21.0959 0.973403 21.1837 1.43866H16.9944L16.9846 24.1767Z" fill="white"/>
</svg>
