<svg width="32" height="32" viewBox="0 0 32 32" fill="none" xmlns="http://www.w3.org/2000/svg">
<path fill-rule="evenodd" clip-rule="evenodd" d="M16 0C11.6547 0 11.1098 0.0183994 9.4032 0.0961594C7.70016 0.173919 6.53712 0.444319 5.51936 0.839999C4.4672 1.2488 3.57504 1.79584 2.68544 2.68544C1.796 3.57488 1.2488 4.4672 0.839999 5.51936C0.444479 6.53712 0.17392 7.70016 0.0963196 9.4032C0.0183996 11.1098 0 11.6546 0 16C0 20.3453 0.0183996 20.8901 0.0963196 22.5966C0.17392 24.2998 0.444479 25.4629 0.839999 26.4806C1.2488 27.5326 1.796 28.425 2.68544 29.3146C3.57504 30.204 4.4672 30.751 5.51936 31.16C6.53712 31.5555 7.70016 31.8261 9.4032 31.9037C11.1098 31.9816 11.6547 32 16 32C20.3453 32 20.8902 31.9816 22.5968 31.9037C24.2998 31.8261 25.4629 31.5555 26.4806 31.16C27.5328 30.751 28.425 30.204 29.3146 29.3146C30.204 28.425 30.751 27.5328 31.16 26.4806C31.5555 25.4629 31.8261 24.2998 31.9038 22.5966C31.9816 20.8901 32 20.3453 32 16C32 11.6547 31.9816 11.1098 31.9038 9.4032C31.8261 7.70016 31.5555 6.53712 31.16 5.51936C30.751 4.4672 30.204 3.57488 29.3146 2.68544C28.425 1.79584 27.5328 1.2488 26.4806 0.839999C25.4629 0.444319 24.2998 0.173919 22.5968 0.0961594C20.8902 0.0183994 20.3453 0 16 0ZM7.78352 16C7.78352 11.4624 11.4621 7.78384 15.9998 7.78384C20.5376 7.78384 24.216 11.4624 24.216 16C24.216 20.5378 20.5376 24.2162 15.9998 24.2162C11.4621 24.2162 7.78352 20.5378 7.78352 16ZM10.6667 16C10.6667 18.9454 13.0544 21.3333 16 21.3333C18.9454 21.3333 21.3333 18.9454 21.3333 16C21.3333 13.0544 18.9454 10.6666 16 10.6666C13.0544 10.6666 10.6667 13.0544 10.6667 16ZM22.4653 2.97616C20.7782 2.8992 20.2722 2.88288 16 2.88288C11.7278 2.88288 11.2218 2.8992 9.53456 2.97616C7.97456 3.04736 7.12736 3.308 6.56368 3.52704C5.8168 3.81728 5.28384 4.164 4.72384 4.724C4.164 5.28368 3.81728 5.8168 3.52704 6.56352C3.308 7.12736 3.04736 7.97456 2.97616 9.53456C2.8992 11.2218 2.88288 11.7277 2.88288 16C2.88288 20.2722 2.8992 20.7782 2.97616 22.4654C3.04736 24.0253 3.308 24.8725 3.52704 25.4363C3.81728 26.183 4.164 26.7162 4.724 27.276C5.28384 27.8358 5.8168 28.1826 6.56368 28.473C7.12736 28.692 7.97456 28.9526 9.53456 29.0238C11.2216 29.1008 11.7275 29.1171 16 29.1171C20.2725 29.1171 20.7784 29.1008 22.4653 29.0238C24.0253 28.9526 24.8725 28.692 25.4363 28.473C26.183 28.1826 26.7162 27.8358 27.276 27.276C27.836 26.7162 28.1827 26.183 28.473 25.4363C28.692 24.8725 28.9526 24.0253 29.0238 22.4653C29.1008 20.7782 29.1171 20.2722 29.1171 16C29.1171 11.7277 29.1008 11.2218 29.0238 9.53456C28.9526 7.97456 28.692 7.12736 28.473 6.56352C28.1827 5.8168 27.836 5.28368 27.276 4.72384C26.7162 4.164 26.183 3.81728 25.4363 3.52704C24.8725 3.308 24.0253 3.04736 22.4653 2.97616Z" fill="white"/>
</svg>
