<svg width="42" height="17" viewBox="0 0 42 17" fill="none" xmlns="http://www.w3.org/2000/svg">
<path d="M33.9685 0.937012H8.58909C4.15343 0.937012 0.557617 4.53282 0.557617 8.96848C0.557617 13.4041 4.15343 17 8.58909 17H33.9685C38.4042 17 42 13.4041 42 8.96848C42 4.53282 38.4042 0.937012 33.9685 0.937012Z" fill="white"/>
<path fill-rule="evenodd" clip-rule="evenodd" d="M9.15302 4.14941H6.3396V13.7872H9.15302V11.7357L9.87445 10.7307L11.5215 13.7872H14.8751H18.0762V4.14941H14.8751V13.7858L11.8822 8.33506L14.8159 4.14941H11.5456L9.15302 7.75674V4.14941ZM24.739 8.98213C24.739 10.3727 23.8789 10.9785 22.5456 10.9785H22.0595V6.95834H22.5456C23.8789 6.95834 24.739 7.56396 24.739 8.95454V8.98213ZM22.4835 4.14941H19.144V13.7872H22.384C25.9105 13.7872 27.6803 11.7632 27.6803 8.91317V8.88586C27.6803 6.03578 25.948 4.14941 22.4835 4.14941ZM29.2779 10.2428L27.6805 12.2208C28.8177 13.2564 30.4535 13.7872 32.2681 13.7872C34.6704 13.7872 36.2168 12.5925 36.2168 10.641V10.6146C36.2168 8.74264 34.6833 8.0524 32.3958 7.61419C31.4502 7.42832 31.2075 7.26921 31.2075 7.01687V6.9904C31.2075 6.76469 31.4119 6.60543 31.8592 6.60543C32.6899 6.60543 33.6994 6.88423 34.5428 7.5214L35.9995 5.42389C34.9644 4.57424 33.6865 4.14941 31.9615 4.14941C29.495 4.14941 28.1662 5.51682 28.1662 7.28245V7.30906C28.1662 9.27378 29.9296 9.8711 31.936 10.2959C32.8942 10.495 33.1755 10.641 33.1755 10.9065V10.9331C33.1755 11.1853 32.9454 11.3313 32.4088 11.3313C31.3607 11.3313 30.2489 11.0128 29.2779 10.2428Z" fill="black"/>
</svg>
